<svg xmlns="http://www.w3.org/2000/svg" fill="none" viewBox="0 0 100 100"><path fill="#4285F4" d="M95.833 51.021c0-3.77-.312-6.52-.983-9.375H50.933V58.66h25.775c-.516 4.225-3.32 10.592-9.558 14.87l-.088.567 13.884 10.542.958.092c8.842-7.992 13.93-19.759 13.93-33.709"/><path fill="#34A853" d="M50.938 95.833c12.625 0 23.225-4.076 30.97-11.105l-14.758-11.2c-3.95 2.7-9.25 4.584-16.212 4.584a28.1 28.1 0 0 1-26.609-19.05l-.55.046-14.437 10.95-.188.516c7.692 14.971 23.492 25.258 41.784 25.258"/><path fill="#FBBC05" d="M24.333 59.062a27.7 27.7 0 0 1-1.57-9.063c0-3.158.574-6.212 1.504-9.062l-.025-.613L9.625 29.2l-.48.225A45.1 45.1 0 0 0 4.168 50c0 7.384 1.816 14.363 4.987 20.575z"/><path fill="#EB4335" d="M50.938 21.888c8.783 0 14.704 3.716 18.083 6.824l13.196-12.629C74.113 8.7 63.563 4.167 50.937 4.167c-18.295 0-34.091 10.287-41.783 25.258L24.28 40.938a28.21 28.21 0 0 1 26.659-19.05"/></svg>